<?xml version="1.0" encoding="UTF-8" standalone="no"?>
<!-- Created with Inkscape (http://www.inkscape.org/) -->

<svg
   xmlns:dc="http://purl.org/dc/elements/1.1/"
   xmlns:cc="http://creativecommons.org/ns#"
   xmlns:rdf="http://www.w3.org/1999/02/22-rdf-syntax-ns#"
   xmlns:svg="http://www.w3.org/2000/svg"
   xmlns="http://www.w3.org/2000/svg"
   xmlns:sodipodi="http://sodipodi.sourceforge.net/DTD/sodipodi-0.dtd"
   xmlns:inkscape="http://www.inkscape.org/namespaces/inkscape"
   width="32"
   height="32"
   id="svg2"
   version="1.1"
   inkscape:version="0.48.5 r10040"
   sodipodi:docname="MainIcon.svg"
   inkscape:export-filename="MainIcon16.png"
   inkscape:export-xdpi="45"
   inkscape:export-ydpi="45">
  <defs
     id="defs4" />
  <sodipodi:namedview
     id="base"
     pagecolor="#ffffff"
     bordercolor="#666666"
     borderopacity="1.0"
     inkscape:pageopacity="0.0"
     inkscape:pageshadow="2"
     inkscape:zoom="7.9195959"
     inkscape:cx="15.732261"
     inkscape:cy="19.986022"
     inkscape:document-units="px"
     inkscape:current-layer="layer1"
     showgrid="false"
     fit-margin-top="0"
     fit-margin-left="0"
     fit-margin-right="0"
     fit-margin-bottom="0"
     inkscape:window-width="852"
     inkscape:window-height="716"
     inkscape:window-x="616"
     inkscape:window-y="86"
     inkscape:window-maximized="0" />
  <metadata
     id="metadata7">
    <rdf:RDF>
      <cc:Work
         rdf:about="">
        <dc:format>image/svg+xml</dc:format>
        <dc:type
           rdf:resource="http://purl.org/dc/dcmitype/StillImage" />
        <dc:title></dc:title>
      </cc:Work>
    </rdf:RDF>
  </metadata>
  <g
     inkscape:label="Layer 1"
     inkscape:groupmode="layer"
     id="layer1"
     transform="translate(17.142857,-637.50507)">
    <rect
       style="color:#000000;fill:#ffff00;fill-opacity:1;fill-rule:nonzero;stroke:none;stroke-width:5;marker:none;visibility:visible;display:inline;overflow:visible;enable-background:accumulate"
       id="rect2989"
       width="32"
       height="32"
       x="-17.142857"
       y="637.50507" />
    <text
       xml:space="preserve"
       style="font-size:5.18948174px;font-style:normal;font-variant:normal;font-weight:bold;font-stretch:normal;text-align:start;line-height:100%;letter-spacing:0px;word-spacing:0px;writing-mode:lr-tb;text-anchor:start;fill:#000000;fill-opacity:1;stroke:none;font-family:FixedDB ThaiText New;-inkscape-font-specification:FixedDB ThaiText New Bold"
       x="-16.35951"
       y="655.0426"
       id="text3018"
       sodipodi:linespacing="100%"><tspan
         sodipodi:role="line"
         id="tspan3020"
         x="-16.35951"
         y="655.0426">0110100111000</tspan></text>
    <text
       xml:space="preserve"
       style="font-size:5.18948174px;font-style:normal;font-variant:normal;font-weight:bold;font-stretch:normal;text-align:start;line-height:100%;letter-spacing:0px;word-spacing:0px;writing-mode:lr-tb;text-anchor:start;fill:#000000;fill-opacity:1;stroke:none;font-family:FixedDB ThaiText New;-inkscape-font-specification:FixedDB ThaiText New Bold"
       x="-16.629147"
       y="646.31982"
       id="text2998"
       sodipodi:linespacing="100%"><tspan
         sodipodi:role="line"
         id="tspan3000"
         x="-16.629147"
         y="646.31982">1101001110001</tspan></text>
    <text
       sodipodi:linespacing="100%"
       id="text3002"
       y="641.99249"
       x="-16.507441"
       style="font-size:5.18948174px;font-style:normal;font-variant:normal;font-weight:bold;font-stretch:normal;text-align:start;line-height:100%;letter-spacing:0px;word-spacing:0px;writing-mode:lr-tb;text-anchor:start;fill:#000000;fill-opacity:1;stroke:none;font-family:FixedDB ThaiText New;-inkscape-font-specification:FixedDB ThaiText New Bold"
       xml:space="preserve"><tspan
         y="641.99249"
         x="-16.507441"
         id="tspan3004"
         sodipodi:role="line">0100111000111</tspan></text>
    <text
       sodipodi:linespacing="100%"
       id="text3006"
       y="667.95642"
       x="-16.507441"
       style="font-size:5.18948174px;font-style:normal;font-variant:normal;font-weight:bold;font-stretch:normal;text-align:start;line-height:100%;letter-spacing:0px;word-spacing:0px;writing-mode:lr-tb;text-anchor:start;fill:#000000;fill-opacity:1;stroke:none;font-family:FixedDB ThaiText New;-inkscape-font-specification:FixedDB ThaiText New Bold"
       xml:space="preserve"><tspan
         y="667.95642"
         x="-16.507441"
         id="tspan3008"
         sodipodi:role="line">0010011100011</tspan></text>
    <text
       xml:space="preserve"
       style="font-size:5.18948174px;font-style:normal;font-variant:normal;font-weight:bold;font-stretch:normal;text-align:start;line-height:100%;letter-spacing:0px;word-spacing:0px;writing-mode:lr-tb;text-anchor:start;fill:#000000;fill-opacity:1;stroke:none;font-family:FixedDB ThaiText New;-inkscape-font-specification:FixedDB ThaiText New Bold"
       x="-16.629147"
       y="663.62909"
       id="text3010"
       sodipodi:linespacing="100%"><tspan
         sodipodi:role="line"
         id="tspan3012"
         x="-16.629147"
         y="663.62909">1001011011100</tspan></text>
    <text
       sodipodi:linespacing="100%"
       id="text3014"
       y="650.64716"
       x="-16.629147"
       style="font-size:5.18948174px;font-style:normal;font-variant:normal;font-weight:bold;font-stretch:normal;text-align:start;line-height:100%;letter-spacing:0px;word-spacing:0px;writing-mode:lr-tb;text-anchor:start;fill:#000000;fill-opacity:1;stroke:none;font-family:FixedDB ThaiText New;-inkscape-font-specification:FixedDB ThaiText New Bold"
       xml:space="preserve"><tspan
         y="650.64716"
         x="-16.629147"
         id="tspan3016"
         sodipodi:role="line">1101001110001</tspan></text>
    <text
       sodipodi:linespacing="100%"
       id="text3022"
       y="659.30176"
       x="-16.629147"
       style="font-size:5.18948174px;font-style:normal;font-variant:normal;font-weight:bold;font-stretch:normal;text-align:start;line-height:100%;letter-spacing:0px;word-spacing:0px;writing-mode:lr-tb;text-anchor:start;fill:#000000;fill-opacity:1;stroke:none;font-family:FixedDB ThaiText New;-inkscape-font-specification:FixedDB ThaiText New Bold"
       xml:space="preserve"><tspan
         y="659.30176"
         x="-16.629147"
         id="tspan3024"
         sodipodi:role="line">1101001110001</tspan></text>
    <rect
       style="color:#000000;fill:#ffff00;fill-opacity:1;fill-rule:nonzero;stroke:none;stroke-width:5;marker:none;visibility:visible;display:inline;overflow:visible;enable-background:accumulate"
       id="rect3828"
       width="26.25"
       height="13.392858"
       x="3.0357144"
       y="9.3214283"
       transform="translate(-17.142857,637.50507)" />
    <g
       transform="matrix(0.83584986,0,0,1.1963871,-0.26963565,-0.0681454)"
       style="font-size:14.72025204px;font-style:normal;font-variant:normal;font-weight:900;font-stretch:normal;text-align:start;line-height:100%;letter-spacing:0px;word-spacing:0px;writing-mode:lr-tb;text-anchor:start;fill:#000000;fill-opacity:1;stroke:none;font-family:Arial Black;-inkscape-font-specification:'Arial Black, Heavy'"
       id="text2985">
      <path
         inkscape:connector-curvature="0"
         d="m -15.519729,540.96362 9.214533,0 0,2.10597 -5.908226,6.16698 6.1238547,0 0,2.2641 -9.9979837,0 0,-2.18504 5.843538,-6.10229 -5.275716,0 z"
         id="path2992" />
      <path
         inkscape:connector-curvature="0"
         d="m -3.3295202,545.83682 c -0.4600098,-0.24437 -0.7954319,-0.5175 -1.0062672,-0.81938 -0.287506,-0.41209 -0.4312584,-0.88647 -0.4312574,-1.42315 -1e-6,-0.88168 0.4144849,-1.60283 1.2434588,-2.16348 0.6468832,-0.43125 1.5022095,-0.64687 2.5659814,-0.64688 1.40876798,10e-6 2.4497743,0.26834 3.1230222,0.80501 0.6732322,0.53668 1.0098522,1.21232 1.0098611,2.02691 -8.9e-6,0.47439 -0.1341777,0.91763 -0.4025069,1.32971 -0.2012617,0.30668 -0.5175168,0.60377 -0.9487663,0.89126 0.57021,0.27314 0.9954773,0.63492 1.2758031,1.08534 0.2803082,0.45042 0.4204668,0.94877 0.420476,1.49502 -9.2e-6,0.5271 -0.1210008,1.01945 -0.362975,1.47706 -0.2419919,0.45761 -0.53908,0.811 -0.8912653,1.06017 -0.3522011,0.24917 -0.7906457,0.43246 -1.31533498,0.54986 -0.5247026,0.11739 -1.0841387,0.17609 -1.67830998,0.17609 -1.11648134,0 -1.96941174,-0.13177 -2.55879384,-0.39532 -0.5893869,-0.26354 -1.0374149,-0.65167 -1.3440855,-1.16439 -0.3066727,-0.51272 -0.4600085,-1.08533 -0.4600079,-1.71784 -6e-7,-0.61814 0.1437518,-1.14163 0.4312574,-1.5705 0.2875036,-0.42886 0.7307399,-0.76068 1.3297103,-0.99549 z m 1.315335,-2.07003 c -3.7e-6,0.36418 0.1138002,0.65767 0.3414121,0.88048 0.2276038,0.22283 0.5306816,0.33423 0.90923432,0.33423 0.33541715,0 0.61094242,-0.11021 0.82657666,-0.33063 0.21562271,-0.22042 0.32343695,-0.50553 0.32344303,-0.85533 -6.08e-6,-0.36417 -0.11261206,-0.66006 -0.33781828,-0.88767 -0.22521771,-0.2276 -0.51272234,-0.34141 -0.86251477,-0.34141 -0.35459396,0 -0.64329646,0.11141 -0.86610856,0.33422 -0.2228201,0.22283 -0.3342282,0.51153 -0.3342245,0.86611 z m -0.1581277,4.53539 c -3.5e-6,0.4648 0.1413529,0.84455 0.4240698,1.13924 0.2827089,0.29469 0.6061516,0.44204 0.97032908,0.44204 0.34979239,0 0.66365161,-0.14974 0.94157862,-0.44923 0.27791529,-0.29948 0.41687586,-0.67923 0.41688214,-1.13924 -6.28e-6,-0.46479 -0.14016479,-0.84574 -0.42047595,-1.14283 -0.28032288,-0.29708 -0.60496353,-0.44563 -0.97392293,-0.44563 -0.36417746,0 -0.68163046,0.14375 -0.95236006,0.43125 -0.2707375,0.28751 -0.4061042,0.67564 -0.4061007,1.1644 z"
         id="path2994" />
      <path
         inkscape:connector-curvature="0"
         d="m 4.7421804,546.18902 c -6e-7,-2.00295 0.3605782,-3.40453 1.0817373,-4.20476 0.7211558,-0.80021 1.8196631,-1.20032 3.2955252,-1.20033 0.7091731,10e-6 1.2913701,0.0875 1.7465921,0.26234 0.455209,0.17491 0.826569,0.40252 1.114082,0.68283 0.287497,0.28032 0.513907,0.57502 0.67923,0.88408 0.165307,0.30907 0.298278,0.66965 0.398913,1.08173 0.196453,0.78586 0.294684,1.60524 0.294693,2.45817 -9e-6,1.91191 -0.323452,3.3111 -0.970329,4.19757 -0.646894,0.88648 -1.760974,1.32971 -3.342245,1.32971 -0.8864775,0 -1.6028432,-0.14135 -2.1490993,-0.42407 -0.5462615,-0.28271 -0.9942896,-0.6972 -1.3440855,-1.24346 -0.2539638,-0.38813 -0.4516232,-0.91881 -0.5929789,-1.59206 -0.1413572,-0.67323 -0.2120355,-1.41715 -0.2120349,-2.23175 z m 2.9037998,0.007 c -3.5e-6,1.34169 0.1185921,2.25811 0.3557873,2.74926 0.2371875,0.49116 0.5809951,0.73673 1.0314239,0.73673 0.2970832,0 0.5546395,-0.10422 0.7726695,-0.31266 0.2180191,-0.20844 0.3785421,-0.53787 0.4815711,-0.9883 0.103016,-0.45042 0.154527,-1.15241 0.154534,-2.10597 -7e-6,-1.39918 -0.118602,-2.33956 -0.355788,-2.82114 -0.2371971,-0.48156 -0.5929841,-0.72235 -1.0673618,-0.72236 -0.4839711,10e-6 -0.8337684,0.24559 -1.049393,0.73673 -0.2156323,0.49116 -0.3234465,1.4004 -0.323443,2.72771 z"
         id="path2996" />
    </g>
  </g>
</svg>
